<?xml version="1.0" encoding="UTF-8" standalone="no"?>
<!-- Created with Inkscape (http://www.inkscape.org/) -->

<svg
   xmlns:dc="http://purl.org/dc/elements/1.1/"
   xmlns:cc="http://creativecommons.org/ns#"
   xmlns:rdf="http://www.w3.org/1999/02/22-rdf-syntax-ns#"
   xmlns:svg="http://www.w3.org/2000/svg"
   xmlns="http://www.w3.org/2000/svg"
   xmlns:sodipodi="http://sodipodi.sourceforge.net/DTD/sodipodi-0.dtd"
   xmlns:inkscape="http://www.inkscape.org/namespaces/inkscape"
   width="128"
   height="128"
   viewBox="0 0 128 128"
   id="svg2"
   version="1.1"
   inkscape:version="0.91 r13725"
   sodipodi:docname="kvadrato_malaktivita.svg"
   inkscape:export-filename="/home/hsn6/k3/Karakteroj/kvadrato_malaktivita.png"
   inkscape:export-xdpi="90"
   inkscape:export-ydpi="90">
  <defs
     id="defs4" />
  <sodipodi:namedview
     id="base"
     pagecolor="#ffffff"
     bordercolor="#666666"
     borderopacity="1.0"
     inkscape:pageopacity="0.0"
     inkscape:pageshadow="2"
     inkscape:zoom="1.4"
     inkscape:cx="77.18766"
     inkscape:cy="15.202658"
     inkscape:document-units="px"
     inkscape:current-layer="layer1"
     showgrid="false"
     units="px"
     inkscape:window-width="1024"
     inkscape:window-height="744"
     inkscape:window-x="0"
     inkscape:window-y="24"
     inkscape:window-maximized="1" />
  <metadata
     id="metadata7">
    <rdf:RDF>
      <cc:Work
         rdf:about="">
        <dc:format>image/svg+xml</dc:format>
        <dc:type
           rdf:resource="http://purl.org/dc/dcmitype/StillImage" />
        <dc:title />
      </cc:Work>
    </rdf:RDF>
  </metadata>
  <g
     inkscape:label="Tavolo 1"
     inkscape:groupmode="layer"
     id="layer1"
     transform="translate(0,-924.36216)">
    <rect
       style="color:#000000;clip-rule:nonzero;display:inline;overflow:visible;visibility:visible;opacity:1;isolation:auto;mix-blend-mode:normal;color-interpolation:sRGB;color-interpolation-filters:linearRGB;solid-color:#000000;solid-opacity:1;fill:#212121;fill-opacity:1;fill-rule:nonzero;stroke:#000000;stroke-width:11.426;stroke-linecap:butt;stroke-linejoin:miter;stroke-miterlimit:4;stroke-dasharray:none;stroke-dashoffset:0;stroke-opacity:1;color-rendering:auto;image-rendering:auto;shape-rendering:auto;text-rendering:auto;enable-background:accumulate"
       id="rect4136"
       width="116.57402"
       height="116.57402"
       x="5.7129893"
       y="930.07513" />
    <path
       d="m 110.77791,945.21593 -3.63116,0 0,-3.63116 3.63116,0 0,3.63116 z m 5.33995,1.70878 0,82.87489 -3.63117,0 0,-5.3399 -7.04873,0 0,5.3399 -5.33995,0 0,7.0488 5.33995,0 0,3.6312 -82.875572,0 0,-3.6312 5.339943,0 0,-7.0488 -5.339943,0 0,-5.3399 -7.049081,0 0,5.3399 -3.630805,0 0,-82.87489 3.630805,0 0,5.33994 7.049081,0 0,-5.33994 5.339943,0 0,-7.04873 -5.339943,0 0,-3.63116 82.875572,0 0,3.63116 -5.33995,0 0,7.04873 5.33995,0 0,5.33994 7.04873,0 0,-5.33994 3.63117,0 z m -5.33995,82.87489 -3.63116,0 0,-3.6311 3.63116,0 0,3.6311 z m -3.63116,5.34 0,-3.6312 3.63116,0 0,3.6312 -3.63116,0 z m 8.97111,1.7088 0,3.6312 -3.63117,0 0,-3.6312 3.63117,0 z m -10.6799,-1.7088 -3.63116,0 0,-3.6312 3.63116,0 0,3.6312 z m -88.215516,0 0,-3.6312 3.630806,0 0,3.6312 -3.630806,0 z m -1.709137,5.34 -3.630805,0 0,-3.6312 3.630805,0 0,3.6312 z m 5.339943,-10.68 -3.630806,0 0,-3.6311 3.630806,0 0,3.6311 z m 1.709138,1.7088 3.630806,0 0,3.6312 -3.630806,0 0,-3.6312 z m -5.339944,-84.58369 3.630806,0 0,3.63116 -3.630806,0 0,-3.63116 z m 3.630806,-5.33994 0,3.63116 -3.630806,0 0,-3.63116 3.630806,0 z m -8.970748,-1.70879 0,-3.63116 3.630805,0 0,3.63116 -3.630805,0 z m 10.679886,1.70879 3.630806,0 0,3.63116 -3.630806,0 0,-3.63116 z m 82.875572,3.63116 -3.63116,0 0,-3.63116 3.63116,0 0,3.63116 z m 1.70879,1.70878 3.63116,0 0,3.63116 -3.63116,0 0,-3.63116 z m 5.33994,-10.67989 3.63117,0 0,3.63116 -3.63117,0 0,-3.63116 z m 5.33995,5.33995 0,-7.04874 -7.04873,0 0,5.33995 -3.63116,0 0,-5.33995 -86.2935,0 0,5.33995 -3.630806,0 0,-5.33995 -7.04908,0 0,7.04874 5.339943,0 0,3.63116 -5.339943,0 0,86.29247 5.339943,0 0,3.6312 -5.339943,0 0,7.0487 7.04908,0 0,-5.3399 3.630806,0 0,5.3399 86.2935,0 0,-5.3399 3.63116,0 0,5.3399 7.04873,0 0,-7.0487 -5.33995,0 0,-3.6312 5.33995,0 0,-86.29247 -5.33995,0 0,-3.63116 5.33995,0"
       style="fill:#211d1d;fill-opacity:1;fill-rule:nonzero;stroke:none"
       id="path20"
       inkscape:connector-curvature="0" />
  </g>
</svg>
