<?xml version="1.0" encoding="UTF-8" standalone="no"?>
<!-- Created with Inkscape (http://www.inkscape.org/) -->

<svg
   xmlns:dc="http://purl.org/dc/elements/1.1/"
   xmlns:cc="http://creativecommons.org/ns#"
   xmlns:rdf="http://www.w3.org/1999/02/22-rdf-syntax-ns#"
   xmlns:svg="http://www.w3.org/2000/svg"
   xmlns="http://www.w3.org/2000/svg"
   xmlns:sodipodi="http://sodipodi.sourceforge.net/DTD/sodipodi-0.dtd"
   xmlns:inkscape="http://www.inkscape.org/namespaces/inkscape"
   width="128"
   height="128"
   viewBox="0 0 128 128"
   id="svg2"
   version="1.1"
   inkscape:version="0.91 r13725"
   sodipodi:docname="kvadrato_malaktivita.svg"
   inkscape:export-filename="/home/hsn6/k3/Karakteroj/kvadrato_malaktivita.png"
   inkscape:export-xdpi="90"
   inkscape:export-ydpi="90">
  <defs
     id="defs4" />
  <sodipodi:namedview
     id="base"
     pagecolor="#ffffff"
     bordercolor="#666666"
     borderopacity="1.0"
     inkscape:pageopacity="0.0"
     inkscape:pageshadow="2"
     inkscape:zoom="3.959798"
     inkscape:cx="57.771149"
     inkscape:cy="89.578443"
     inkscape:document-units="px"
     inkscape:current-layer="layer1"
     showgrid="false"
     units="px"
     inkscape:window-width="1024"
     inkscape:window-height="744"
     inkscape:window-x="0"
     inkscape:window-y="24"
     inkscape:window-maximized="1" />
  <metadata
     id="metadata7">
    <rdf:RDF>
      <cc:Work
         rdf:about="">
        <dc:format>image/svg+xml</dc:format>
        <dc:type
           rdf:resource="http://purl.org/dc/dcmitype/StillImage" />
        <dc:title />
      </cc:Work>
    </rdf:RDF>
  </metadata>
  <g
     inkscape:label="Tavolo 1"
     inkscape:groupmode="layer"
     id="layer1"
     transform="translate(0,-924.36216)">
    <rect
       style="color:#000000;clip-rule:nonzero;display:inline;overflow:visible;visibility:visible;opacity:1;isolation:auto;mix-blend-mode:normal;color-interpolation:sRGB;color-interpolation-filters:linearRGB;solid-color:#000000;solid-opacity:1;fill:#212121;fill-opacity:1;fill-rule:nonzero;stroke:#000000;stroke-width:11.426;stroke-linecap:butt;stroke-linejoin:miter;stroke-miterlimit:4;stroke-dasharray:none;stroke-dashoffset:0;stroke-opacity:1;color-rendering:auto;image-rendering:auto;shape-rendering:auto;text-rendering:auto;enable-background:accumulate"
       id="rect4136"
       width="116.57402"
       height="116.57402"
       x="5.7129893"
       y="930.07513" />
    <path
       d="m 110.77791,945.21593 -3.63116,0 0,-3.63116 3.63116,0 0,3.63116 z m 5.33995,1.70878 0,82.87489 -3.63117,0 0,-5.3399 -7.04873,0 0,5.3399 -5.33995,0 0,7.0488 5.33995,0 0,3.6312 -82.875572,0 0,-3.6312 5.339943,0 0,-7.0488 -5.339943,0 0,-5.3399 -7.049081,0 0,5.3399 -3.630805,0 0,-82.87489 3.630805,0 0,5.33994 7.049081,0 0,-5.33994 5.339943,0 0,-7.04873 -5.339943,0 0,-3.63116 82.875572,0 0,3.63116 -5.33995,0 0,7.04873 5.33995,0 0,5.33994 7.04873,0 0,-5.33994 3.63117,0 z m -5.33995,82.87489 -3.63116,0 0,-3.6311 3.63116,0 0,3.6311 z m -3.63116,5.34 0,-3.6312 3.63116,0 0,3.6312 -3.63116,0 z m 8.97111,1.7088 0,3.6312 -3.63117,0 0,-3.6312 3.63117,0 z m -10.6799,-1.7088 -3.63116,0 0,-3.6312 3.63116,0 0,3.6312 z m -88.215516,0 0,-3.6312 3.630806,0 0,3.6312 -3.630806,0 z m -1.709137,5.34 -3.630805,0 0,-3.6312 3.630805,0 0,3.6312 z m 5.339943,-10.68 -3.630806,0 0,-3.6311 3.630806,0 0,3.6311 z m 1.709138,1.7088 3.630806,0 0,3.6312 -3.630806,0 0,-3.6312 z m -5.339944,-84.58369 3.630806,0 0,3.63116 -3.630806,0 0,-3.63116 z m 3.630806,-5.33994 0,3.63116 -3.630806,0 0,-3.63116 3.630806,0 z m -8.970748,-1.70879 0,-3.63116 3.630805,0 0,3.63116 -3.630805,0 z m 10.679886,1.70879 3.630806,0 0,3.63116 -3.630806,0 0,-3.63116 z m 82.875572,3.63116 -3.63116,0 0,-3.63116 3.63116,0 0,3.63116 z m 1.70879,1.70878 3.63116,0 0,3.63116 -3.63116,0 0,-3.63116 z m 5.33994,-10.67989 3.63117,0 0,3.63116 -3.63117,0 0,-3.63116 z m 5.33995,5.33995 0,-7.04874 -7.04873,0 0,5.33995 -3.63116,0 0,-5.33995 -86.2935,0 0,5.33995 -3.630806,0 0,-5.33995 -7.04908,0 0,7.04874 5.339943,0 0,3.63116 -5.339943,0 0,86.29247 5.339943,0 0,3.6312 -5.339943,0 0,7.0487 7.04908,0 0,-5.3399 3.630806,0 0,5.3399 86.2935,0 0,-5.3399 3.63116,0 0,5.3399 7.04873,0 0,-7.0487 -5.33995,0 0,-3.6312 5.33995,0 0,-86.29247 -5.33995,0 0,-3.63116 5.33995,0"
       style="fill:#000000;fill-opacity:1;fill-rule:nonzero;stroke:none;stroke-opacity:1"
       id="path20"
       inkscape:connector-curvature="0" />
    <path
       d="m 111.37967,937.43446 3.54827,0 0,3.5479 -3.54827,0 z m -1.66974,8.76593 -3.54826,0 0,-3.5479 3.54826,0 z m 5.21801,1.67012 0,80.98369 -3.54827,0 0,-5.2181 -5.218,0 0,-2.9392 5.218,0 0,-64.66945 -5.218,0 0,-2.93891 5.218,0 0,-5.21803 z m -5.21801,86.20149 -3.54826,0 0,-3.548 3.54826,0 z m 5.21801,1.6699 0,3.5483 -3.54827,0 0,-3.5483 z m -10.43603,3.5483 -80.983463,0 0,-3.5483 5.218028,0 0,-5.2179 2.938897,0 0,5.2179 64.669249,0 0,-5.2179 2.93924,0 0,5.2179 5.218049,0 z m -86.201491,-5.2182 0,-3.548 3.547912,0 0,3.548 z m -1.670116,5.2182 -3.54791,0 0,-3.5483 3.54791,0 z m -3.54791,-10.436 0,-80.98369 3.54791,0 0,5.21803 5.218028,0 0,2.93891 -5.218028,0 0,64.66945 5.218028,0 0,2.9392 -5.218028,0 0,5.2181 z m 5.218026,-86.20171 3.547912,0 0,3.5479 -3.547912,0 z m -5.218026,-1.67013 0,-3.5479 3.54791,0 0,3.5479 z m 87.871237,5.21803 0,-3.5479 3.54828,0 0,3.5479 z m -1.669769,6.88815 0,3.54792 -3.548258,0 0,-3.54792 z m -70.547386,0 3.547911,0 0,3.54792 -3.547911,0 z m -1.670118,-6.88815 -3.54791,0 0,-3.5479 3.54791,0 z m -3.54791,1.67012 3.54791,0 0,3.54791 -3.54791,0 z m -5.218028,0 3.547912,0 0,3.54791 -3.547912,0 z m 10.436056,75.76559 0,-3.5483 3.547911,0 0,3.5483 z m -6.888144,5.2181 -3.547912,0 0,-3.5484 3.547912,0 z m 5.218026,1.6698 0,3.548 -3.54791,0 0,-3.548 z m -3.54791,-1.6698 0,-3.5484 3.54791,0 0,3.5484 z m 75.765414,-5.2181 -3.548258,0 0,-3.5483 3.548258,0 z m 1.669769,6.8879 3.54828,0 0,3.548 -3.54828,0 z m 3.54828,-1.6698 -3.54828,0 0,-3.5484 3.54828,0 z m 5.21802,0 -3.54826,0 0,-3.5484 3.54826,0 z m 0,-68.77384 0,58.94674 -5.21802,0 0,4.609 -3.54828,0 0,-5.218 -6.887801,0 0,6.8877 5.218032,0 0,3.5484 -4.609011,0 0,5.2178 -61.329361,0 0,-5.2178 -4.609014,0 0,-3.5484 5.218026,0 0,-6.8877 -6.888144,0 0,5.218 -3.54791,0 0,-4.609 -5.218028,0 0,-61.32953 5.218028,0 0,-4.60902 3.54791,0 0,5.21803 6.888144,0 0,-6.88815 -5.218026,0 0,-3.54791 4.609014,0 0,-5.21802 61.329361,0 0,5.21802 4.609011,0 0,3.54791 -5.218032,0 0,6.88815 6.887801,0 0,-5.21803 3.54828,0 0,4.60902 5.21802,0 z m -3.54826,-12.20985 3.54826,0 0,3.54791 -3.54826,0 z m -1.66976,3.54791 -3.54828,0 0,-3.54791 3.54828,0 z m -80.983463,-13.98396 80.983463,0 0,3.5479 -5.218049,0 0,5.21803 -2.93924,0 0,-5.21803 -64.669249,0 0,5.21803 -2.938897,0 0,-5.21803 -5.218028,0 z m 86.201483,3.5479 -3.54826,0 0,-5.21803 -84.323339,0 0,5.21803 -3.547912,0 0,-5.21803 -6.888144,0 0,6.88816 5.218028,0 0,3.5479 -5.218028,0 0,84.32361 5.218028,0 0,3.548 -5.218028,0 0,6.888 6.888144,0 0,-5.2181 3.547912,0 0,5.2181 84.323339,0 0,-5.2181 3.54826,0 0,5.2181 6.88779,0 0,-6.888 -5.21805,0 0,-3.548 5.21805,0 0,-84.3236 -5.21805,0 0,-3.5479 5.21805,0 0,-6.88816 -6.88779,0 0,5.21803"
       style="fill:#000000;fill-opacity:1;fill-rule:nonzero;stroke:none"
       id="path32"
       inkscape:connector-curvature="0"
       sodipodi:nodetypes="ccccccccccccccccccccccccccccccccccccccccccccccccccccccccccccccccccccccccccccccccccccccccccccccccccccccccccccccccccccccccccccccccccccccccccccccccccccccccccccccccccccccccccccccccccccccccccccccccccccccccccccccccccccccccccccccccccccccccccccccccccccccccccccccc" />
  </g>
</svg>
