<?xml version="1.0" encoding="UTF-8" standalone="no"?>
<!-- Created with Inkscape (http://www.inkscape.org/) -->

<svg
   xmlns:dc="http://purl.org/dc/elements/1.1/"
   xmlns:cc="http://creativecommons.org/ns#"
   xmlns:rdf="http://www.w3.org/1999/02/22-rdf-syntax-ns#"
   xmlns:svg="http://www.w3.org/2000/svg"
   xmlns="http://www.w3.org/2000/svg"
   xmlns:sodipodi="http://sodipodi.sourceforge.net/DTD/sodipodi-0.dtd"
   xmlns:inkscape="http://www.inkscape.org/namespaces/inkscape"
   width="256"
   height="256"
   viewBox="0 0 256 256"
   id="svg2"
   version="1.1"
   inkscape:version="0.91 r13725"
   sodipodi:docname="nigrtruo.svg">
  <defs
     id="defs4" />
  <sodipodi:namedview
     id="base"
     pagecolor="#ffffff"
     bordercolor="#666666"
     borderopacity="1.0"
     inkscape:pageopacity="0.0"
     inkscape:pageshadow="2"
     inkscape:zoom="1.4"
     inkscape:cx="151.43141"
     inkscape:cy="102.0152"
     inkscape:document-units="px"
     inkscape:current-layer="layer1"
     showgrid="false"
     units="px"
     inkscape:window-width="1375"
     inkscape:window-height="876"
     inkscape:window-x="65"
     inkscape:window-y="24"
     inkscape:window-maximized="1" />
  <metadata
     id="metadata7">
    <rdf:RDF>
      <cc:Work
         rdf:about="">
        <dc:format>image/svg+xml</dc:format>
        <dc:type
           rdf:resource="http://purl.org/dc/dcmitype/StillImage" />
        <dc:title></dc:title>
      </cc:Work>
    </rdf:RDF>
  </metadata>
  <g
     inkscape:label="Layer 1"
     inkscape:groupmode="layer"
     id="layer1"
     transform="translate(0,-796.36214)">
    <path
       sodipodi:type="star"
       style="fill:#3366cc;stroke:#003399;stroke-width:3;stroke-linecap:round;stroke-linejoin:round;stroke-miterlimit:4;stroke-dasharray:none;stroke-opacity:1"
       id="path4186"
       sodipodi:sides="8"
       sodipodi:cx="128"
       sodipodi:cy="924.36214"
       sodipodi:r1="93.647514"
       sodipodi:r2="51.208385"
       sodipodi:arg1="2.3705614"
       sodipodi:arg2="2.2839884"
       inkscape:flatsided="false"
       inkscape:rounded="0.96"
       inkscape:randomized="0"
       d="M 60.836715,989.62275 C 21.780435,976.67727 109.6859,1001.3295 94.496853,963.08986 68.887645,898.61663 65.491544,985.01344 34.36215,923.01674 c -18.463122,-36.7708 26.263661,42.81953 42.5629,5.03973 27.48102,-63.69791 -36.012162,-5.00754 -14.185682,-70.85763 12.945482,-39.05628 -11.706763,48.84919 26.532892,33.66013 64.47324,-25.6092 -21.923578,-29.0053 40.07312,-60.1347 36.7708,-18.46312 -42.819525,26.26366 -5.03973,42.5629 63.69791,27.48102 5.00755,-36.01216 70.85764,-14.18568 39.05628,12.94548 -48.84919,-11.70676 -33.66014,26.53289 25.6092,64.47324 29.00531,-21.92358 60.1347,40.07312 18.46312,36.7708 -26.26366,-42.81952 -42.5629,-5.03972 -27.48102,63.6979 36.01216,5.00754 14.18568,70.85763 -12.94548,39.05629 11.70677,-48.84919 -26.53289,-33.66014 -64.47324,25.60921 21.92358,29.00531 -40.07312,60.13473 -36.770797,18.4631 42.81953,-26.26369 5.03973,-42.56293 -63.697911,-27.48102 -5.00755,36.01213 -70.857635,14.18568 z"
       inkscape:transform-center-x="3.046849"
       inkscape:transform-center-y="-6.0603162" />
  </g>
</svg>
